<?xml version="1.0" encoding="UTF-8" standalone="no"?><!DOCTYPE svg PUBLIC "-//W3C//DTD SVG 1.1//EN" "http://www.w3.org/Graphics/SVG/1.1/DTD/svg11.dtd"><svg width="100%" height="100%" viewBox="0 0 400 400" version="1.1" xmlns="http://www.w3.org/2000/svg" xmlns:xlink="http://www.w3.org/1999/xlink" xml:space="preserve" xmlns:serif="http://www.serif.com/" style="fill-rule:evenodd;clip-rule:evenodd;stroke-linejoin:round;stroke-miterlimit:2;"><g id="layer1" serif:id="layer1"><path d="M197.391,251.476c66.029,-4.005 96.404,-60.616 91.193,-102.767c-5.546,-44.853 -43.954,-80.313 -88.699,-81.023c-47.948,-0.763 -86.959,31.979 -93.645,79.852c-3.758,26.91 3.606,51.285 21.596,72.024c17.739,20.452 43.432,30.474 71.26,31.987c-3.669,3.705 -10.24,4.291 -13.514,5.632c-18.692,7.655 -53.837,21.287 -72.882,28.639c-6.133,2.368 -12.638,-2.392 -12.25,-8.955c1.266,-21.434 3.738,-62.222 5.456,-84.121c0.358,-4.552 -0.897,-7.846 -3.781,-11.24c-18.54,-21.82 -36.911,-43.78 -55.328,-65.704l-0.079,-0.094c-4.033,-4.802 -1.658,-12.167 4.42,-13.711c8.609,-2.188 16.92,-4.297 25.243,-6.354c19.712,-4.872 39.426,-9.732 59.178,-14.437c4.149,-0.988 6.697,-3.286 8.899,-6.857c11.372,-18.444 32.621,-51.598 44.331,-69.808c3.884,-6.039 12.691,-6.055 16.598,-0.031c11.764,18.143 33.065,51.149 44.292,69.485c2.664,4.35 6.005,6.391 10.765,7.544c20.627,5 57.963,14.511 79.347,19.983c7.526,1.926 10.456,11.035 5.471,16.994c-6.239,7.459 -13.825,16.525 -18.787,22.446c-11.569,13.803 -23.062,27.673 -34.802,41.328c-2.654,3.087 -3.461,6.105 -3.158,10.058c1.589,20.757 3.841,58.847 5.126,81.219c0.476,8.283 -7.771,14.262 -15.494,11.229c-20.159,-7.92 -53.844,-21.2 -72.201,-28.697c-2.273,-0.928 -6.359,-1.894 -8.555,-4.621" style="fill:#fcd41f;fill-rule:nonzero;"/><path d="M55.104,310.223l0,24.972c0,2.034 1.653,3.687 3.686,3.687l9.086,0l0,-24.973c0,-2.034 -1.652,-3.686 -3.685,-3.686l-9.087,0Zm-30.119,29.294c11.247,-5.91 12.39,-15.187 12.454,-29.294l-8.769,0c-2.033,0 -3.685,1.652 -3.685,3.686l0,25.608Zm39.206,17.727c2.033,0 3.685,-1.652 3.685,-3.685l0,-10.358l-9.086,0c-4.385,0 -8.007,-3.621 -8.007,-8.006l0,-24.972l-9.023,0c-0.127,16.521 -1.588,27.197 -16.775,34.059l0,9.277c0,2.033 1.652,3.685 3.685,3.685l35.521,0Zm-35.521,4.322c-4.384,0 -8.006,-3.622 -8.006,-8.007l0,-39.65c0,-4.385 3.622,-8.006 8.006,-8.006l35.521,0c4.385,0 8.006,3.621 8.006,8.006l0,39.65c0,4.385 -3.621,8.007 -8.006,8.007l-35.521,0Z" style="fill:#0b327f;fill-rule:nonzero;"/><path d="M126.899,332.59l19.19,0l0,-12.2l-9.849,0c-2.478,4.829 -5.592,8.705 -9.341,12.2m-2.542,-28.403l48.102,0l0,4.32l-22.049,0l0,7.562l25.544,0l0,4.321l-10.357,0l11.692,13.662l-3.241,2.796l-14.107,-16.458l-9.531,0l0,12.2l16.076,0c-2.605,4.766 -5.21,8.96 -8.197,12.518l18.872,0l0,4.384l-22.239,0l0,4.385c0,4.385 -3.622,8.006 -8.007,8.006l-9.023,0l0,-4.32l9.023,0c2.034,0 3.686,-1.589 3.686,-3.686l0,-4.385l-31.327,0l0,-4.384l33.043,0c2.859,-2.86 5.082,-5.654 6.735,-8.198l-32.408,0l0,-4.066c-1.588,1.462 -3.303,2.86 -5.145,4.258l-2.543,-3.368c5.211,-3.939 9.15,-8.007 12.391,-13.344l-10.738,0l0,-4.321l25.48,0l0,-7.562l-21.732,0l0,-4.32Z" style="fill:#0b327f;fill-rule:nonzero;"/><path d="M271.578,343.964l6.608,15.631l-3.939,1.653l-6.609,-15.695l3.94,-1.589Zm-15.886,10.041l-4.321,0l0,-8.897l4.321,0l0,8.897Zm14.233,-25.99l0,-1.778l-18.681,0l0,4.256l16.203,0c1.398,0 2.478,-1.144 2.478,-2.478m-18.681,-10.039l0,3.939l18.681,0l0,-1.398c0,-1.397 -1.08,-2.541 -2.478,-2.541l-16.203,0Zm13.915,43.717l-20.333,0c-4.702,0 -6.863,-3.05 -6.863,-6.863l0,-9.722l4.321,0l0,9.722c0,1.399 0.762,2.542 2.542,2.542l20.333,0l0,4.321Zm-18.236,-31.2l0,-4.256l-18.682,0l0,1.778c0,1.334 1.144,2.478 2.542,2.478l16.14,0Zm-18.682,-8.578l18.682,0l0,-3.939l-16.14,0c-1.398,0 -2.542,1.144 -2.542,2.541l0,1.398Zm23.003,-18.363l0,2.923l25.099,0l0,4.32l-25.099,0l0,2.86l16.203,0c3.75,0 6.8,3.114 6.8,6.862l0,7.498c0,3.814 -3.05,6.8 -6.8,6.8l-16.203,0l0,3.367l18.744,0c0.572,0 1.209,-0.127 1.78,-0.636c0.508,-0.507 0.826,-1.144 0.763,-1.779l0,-1.334l4.32,0l0,1.27c0,1.843 -0.762,3.495 -1.969,4.831c-1.334,1.27 -2.987,1.969 -4.894,1.969l-48.546,0l0,-4.321l25.481,0l0,-3.367l-16.14,0c-3.748,0 -6.863,-2.986 -6.863,-6.8l0,-7.498c0,-3.748 3.115,-6.862 6.863,-6.862l16.14,0l0,-2.86l-25.1,0l0,-4.32l25.1,0l0,-2.923l4.321,0Zm-20.079,41.556c-1.08,6.164 -3.305,11.374 -6.164,16.077l-3.622,-2.225c2.604,-4.193 4.639,-8.959 5.529,-14.551l4.257,0.699Z" style="fill:#0b327f;fill-rule:nonzero;"/><path d="M372.475,321.153c0,-0.127 -0.063,-0.191 -0.19,-0.191l-42.447,0c-0.127,0 -0.191,0.064 -0.191,0.191l0,5.083c0,0.063 0.064,0.127 0.191,0.127l42.447,0c0.127,0 0.19,-0.064 0.19,-0.127l0,-5.083Zm4.32,5.083c0,2.414 -2.032,4.448 -4.51,4.448l-42.447,0c-2.479,0 -4.511,-2.034 -4.511,-4.448l0,-5.083c0,-2.478 2.032,-4.513 4.511,-4.513l42.447,0c2.478,0 4.51,2.035 4.51,4.513l0,5.083Zm-22.811,-22.367l0,3.813l26.243,0l0,4.32l-57.125,0l0,-4.32l26.498,0l0,-3.813l4.384,0Zm-31.327,41.303l34.25,0c3.241,-1.652 6.036,-3.431 8.515,-5.529l-39.397,0l0,-4.32l49.626,0c-3.621,4.002 -7.179,7.307 -10.675,9.849l14.87,0l0,4.321l-21.668,0l-0.509,0.253l0,4.131c0,4.067 -3.114,7.308 -6.862,7.308l-10.676,0l0,-4.321l10.676,0c1.398,0 2.478,-1.335 2.478,-2.987l0,-4.384l-30.628,0l0,-4.321Z" style="fill:#0b327f;fill-rule:nonzero;"/><path d="M34.103,376.565c-1.959,-0.29 -3.991,-0.544 -5.732,-0.544c-3.302,0 -5.986,0.834 -6.131,3.918c-0.109,2.503 2.685,3.918 5.551,5.26c2.792,1.378 5.585,2.721 6.674,5.333c0.435,1.053 0.69,2.067 0.69,3.047c0,3.483 -2.649,6.167 -8.888,6.167c-1.597,0 -3.592,-0.218 -5.804,-0.653l0.471,-2.394c2.032,0.363 3.809,0.58 5.333,0.58c4.498,0 6.42,-1.633 6.42,-3.7c0,-0.689 -0.181,-1.378 -0.471,-2.141c-0.726,-1.668 -3.193,-2.902 -5.478,-4.026c-3.373,-1.67 -6.892,-3.918 -6.965,-7.618c0.326,-4.752 4.063,-6.24 8.598,-6.24c2.067,0 4.172,0.254 6.13,0.544l-0.398,2.467Z" style="fill:#0b327f;fill-rule:nonzero;"/><rect x="54.709" y="373.917" width="2.467" height="25.466" style="fill:#0b327f;"/><path d="M74.373,397.533l0.58,0c2.068,0 3.99,-0.037 3.99,-2.866l0,-20.17l2.504,0l0,20.17c0,5.296 -3.157,5.333 -6.494,5.333l-0.58,0l0,-2.467Z" style="fill:#0b327f;fill-rule:nonzero;"/><rect x="101.908" y="373.917" width="2.466" height="25.466" style="fill:#0b327f;"/><path d="M142.213,373.917l0,25.466l-2.467,0l0,-12.152l-12.951,0l0,12.152l-2.467,0l0,-25.466l2.467,0l0,10.847l12.951,0l0,-10.847l2.467,0Z" style="fill:#0b327f;fill-rule:nonzero;"/><path d="M178.854,373.518l0,17.702c0.29,5.334 -3.954,8.018 -8.307,8.018c-4.28,0 -8.489,-2.612 -8.489,-7.835l0,-17.994l2.467,0l0,17.994c0,3.555 2.975,5.368 6.022,5.368c2.902,0 5.769,-2.068 5.841,-5.405c-0.037,-0.653 -0.037,-2.25 -0.037,-17.848l2.503,0Z" style="fill:#0b327f;fill-rule:nonzero;"/><rect x="198.699" y="373.917" width="2.467" height="25.466" style="fill:#0b327f;"/><path d="M237.844,375.115l-7.51,11.245l7.763,11.645l-2.067,1.305l-7.147,-10.737l-7.148,10.737l-2.066,-1.305l7.727,-11.645l-7.474,-11.245l2.069,-1.307l6.892,10.338l6.893,-10.338l2.068,1.307Z" style="fill:#0b327f;fill-rule:nonzero;"/><rect x="256.746" y="373.917" width="2.467" height="25.466" style="fill:#0b327f;"/><path d="M284.028,388.319l7.726,0l-3.845,-10.484c-1.27,3.518 -2.576,7.001 -3.881,10.484m-6.423,10.157l9.251,-25.031l2.104,0l9.179,25.14l-2.322,0.87l-3.156,-8.634l-9.577,0l-3.156,8.526l-2.323,-0.871Z" style="fill:#0b327f;fill-rule:nonzero;"/><path d="M334.526,373.59l0,25.576l-2.576,0l-12.914,-20.569c0,6.784 0.036,13.64 0.036,20.424l-2.503,0l0,-25.539l2.141,0l13.313,21.221c0,-7.037 0.036,-14.074 0.036,-21.113l2.467,0Z" style="fill:#0b327f;fill-rule:nonzero;"/><path d="M369.933,376.421c-0.543,-0.037 -1.124,-0.037 -1.668,-0.109c-1.451,-0.145 -3.01,-0.327 -4.354,-0.327c-2.901,0 -5.622,0.762 -6.71,3.409c-0.69,1.996 -1.089,4.571 -1.089,7.183c0,2.758 0.399,5.479 1.089,7.401l0,-0.036c0.906,2.466 3.628,3.301 6.566,3.301c1.233,0 2.539,-0.145 3.736,-0.399c0,-3.52 0.037,-6.857 0.037,-10.412l2.466,0l-0.036,12.407c-2.249,0.508 -4.426,0.871 -6.203,0.871c-3.845,0 -7.546,-1.198 -8.889,-4.898c-0.761,-2.139 -1.232,-5.187 -1.232,-8.235c0,-2.938 0.435,-5.84 1.232,-8.053c1.524,-4.027 5.153,-5.006 9.033,-5.006c1.633,0 3.156,0.181 4.571,0.327l1.56,0.109l-0.109,2.467Z" style="fill:#0b327f;fill-rule:nonzero;"/><path d="M242.378,175.123c0,0.007 -0.004,0.011 -0.004,0.018c0.006,-0.002 0.011,-0.004 0.017,-0.005l-0.013,-0.013Z" style="fill:#6db04d;fill-rule:nonzero;"/><path d="M208.029,75.385c1.798,1.749 3.297,3.825 3.747,6.293c1.821,9.985 -1.372,15.429 -10.825,19.465c1.437,0.375 2.871,1.533 4.643,1.102c5.281,1.66 10.007,4.32 14.518,7.369c2.142,1.447 4.001,3.278 5.524,5.368c0.708,0.971 5.812,7.919 6.257,11.098c-2.949,-0.348 -5.822,-1.566 -8.87,-0.758c-1.928,-3.66 -4.147,-7.106 -7.276,-9.884c-0.681,-0.768 -1.446,-1.367 -3.11,-1.251c2.177,4.123 3.401,8.417 3.901,12.76c0.409,3.56 2.328,7.287 0.074,10.881c-0.909,-0.079 -0.597,-0.052 -1.505,-0.132c-4.715,-10.159 -21.324,-11.964 -29.45,-4.093c-3.119,1.186 -4.551,4.967 -8.438,4.97c-0.362,-0.373 -0.623,-0.643 -0.984,-1.015c-0.169,-6.017 1.593,-11.842 1.898,-17.812c1.104,-1.374 1.261,-3.023 1.742,-4.725c-2.762,0.122 -4.157,1.88 -4.773,3.657c-1.948,5.617 -6.366,6.77 -11.452,7.045l0,-0.001c0.545,-3.036 2.356,-5.509 3.657,-8.209c1.43,-1.828 3.68,-4.702 5.111,-6.53c6.184,-5.165 13.189,-8.593 22.398,-9.719l-6.822,-3.164c-4.819,-4.616 -7.16,-10.042 -5.484,-16.781c1.439,-3.773 4.023,-6.611 7.273,-8.905c12.471,-4.51 17.951,2.684 18.246,2.971" style="fill:#cc4b31;fill-rule:nonzero;"/><path d="M242.391,175.136c-8.02,2.83 -16.287,4.452 -24.762,5.051c0.034,-2.121 2.017,-2.702 3.182,-3.868c6.764,-6.77 8.89,-14.776 6.413,-23.938c-1.532,-5.668 -5.469,-9.747 -9.72,-13.526c0.772,-0.185 1.539,-0.372 2.305,-0.559c0.455,0.043 0.91,0.087 1.366,0.132c6.773,0.951 13.52,2.049 20.229,4.367c-0.059,-2.512 -1.657,-3.267 -2.648,-4.439c-3.19,-3.773 -8,-4.245 -12.188,-5.986c-0.573,-0.041 -1.146,-0.082 -1.719,-0.122c-2.216,-1.884 -1.333,-4.586 -1.826,-6.926c2.292,-0.608 4.487,-0.069 6.69,0.383c1.506,0.309 2.951,0.847 4.265,1.645c2.571,1.559 5.88,3.553 7.787,4.722c0.965,0.593 1.856,1.29 2.66,2.087l0.695,0.688c1.215,1.202 2.266,2.559 3.15,4.022c3.334,5.522 5.999,11.375 6.53,18.51l3.176,-6.549c0.99,-1.112 1.93,-2.169 2.919,-3.281c4.595,-2.998 9.478,-3.94 14.71,-2.38c1.114,0.332 2.179,0.845 3.139,1.499c0.14,0.096 0.28,0.194 0.419,0.293c2.648,1.893 4.474,4.734 5.348,7.87c0.586,2.098 1.27,4.187 0.848,6.5c-1.103,6.045 -4.328,9.796 -10.266,11.56c-4.283,1.273 -8.978,0.97 -12.96,-1.056c-2.171,-1.105 -4.266,-2.794 -5.133,-5.702c-1.237,-3.102 -0.3,-2.856 -2.093,-3.878c-2.373,15.133 -10.456,25.383 -24.644,30.618c-2.415,-0.005 -4.752,1.273 -7.216,0.437c0.585,-2.282 -0.692,-5.04 1.746,-6.85c6.255,-0.45 11.174,-3.502 15.405,-7.897c0.73,-1.145 2.291,-1.763 2.179,-3.44c0.063,-0.092 0.126,-0.183 0.189,-0.275c-0.058,0.096 -0.117,0.191 -0.175,0.288" style="fill:#f0a53b;fill-rule:nonzero;"/><path d="M217.629,180.187c-3.694,1.553 -5.521,5.358 -9.139,7.202c-10.86,5.534 -20.818,3.768 -28.533,-5.558c-0.835,-1.009 -1.554,-2.133 -2.919,-2.518c-0.716,0.281 -1.14,0.807 -1.3,1.553c0.033,0.172 0.498,4.136 0.612,5.628c0.501,4.694 2.26,9.231 2.029,14.498c-3.621,-1.647 -4.151,-4.986 -5.676,-7.568c-1.653,0.212 -6.865,-1.414 -9.204,-0.7c1.173,4.02 3.535,7.427 5.628,10.972c0.963,1.088 2.473,2.793 3.436,3.881c6.13,4.702 15.563,8.231 23.367,10.147c-1.05,0.632 -5.015,1.228 -5.975,1.805c-3.296,1.981 -6.021,4.93 -7.202,8.59c-1.091,3.377 -1.02,6.974 0.401,10.825c1.648,2.914 4.067,5.108 6.661,7.139c5.71,2.47 11.467,3.481 17.352,0.565c2.524,-2.141 4.714,-4.561 6.258,-7.518c1.824,-6.94 -0.082,-12.733 -5.372,-17.487c-1.168,-1.021 -4.097,-3.328 -6.539,-4.364c15.863,-2.061 23.603,-9.758 28.749,-24.405c-2.415,-0.006 -4.752,1.272 -7.216,0.434c-1.864,2.122 -7.507,10.293 -10.27,11.641c2.579,-7.101 4.453,-13.702 4.511,-20.675c0.009,-1.156 0.945,-4.149 0.945,-4.149c-0.202,0.016 -0.401,0.048 -0.604,0.062" style="fill:#6db04d;fill-rule:nonzero;"/><path d="M176.272,138.427c-6.699,0.331 -13.341,1.055 -19.974,2.752c3.195,-3.661 6.746,-6.882 11.88,-7.239c3.251,-0.225 4.551,-1.521 4.816,-4.768c0.088,-1.072 -2.331,-5.038 -2.332,-5.039c-1.733,0.925 -3.77,1.333 -5.964,1.517c-2.943,1.225 -7.342,3.057 -10.285,4.282l-4.983,3.99c-3.895,4.708 -7.439,9.594 -9.041,15.656c-0.586,2.216 -1.824,3.154 -3.435,0.581c-5.116,-3.823 -10.585,-6.572 -17.255,-5.662c-3.82,1.459 -6.915,3.888 -9.447,7.07c-2.74,6.095 -2.162,11.897 1.541,17.422c2.331,2.183 5.195,3.55 7.899,5.162c6.483,1.99 12.323,0.994 17.359,-3.738c0.646,-1.103 1.185,-2.3 2.846,-3.148c2.012,8.149 6.635,14.607 12.81,20.06c0.966,0.613 1.921,1.221 2.887,1.835c2.635,1.188 5.269,2.375 7.905,3.563c3.083,3.007 7.551,0.914 9.206,0.7c0.431,-4.652 -1.519,-6.575 -6.341,-7.177c-5.366,-0.671 -8.961,-4.765 -13.21,-9.834c7.182,1.982 13.144,3.492 19.219,4.447c1.122,0.003 2.245,0.006 3.366,0.007c0.16,-0.746 0.583,-1.272 1.299,-1.553c-1.963,-2.514 -4.818,-4.348 -5.793,-7.613c-4.82,-7.569 -4.48,-17.062 0.865,-24.088c0.851,-2.382 2.744,-3.928 4.559,-5.488c1.173,-1.01 2.006,-1.998 1.447,-3.624c-0.614,-0.023 -1.229,-0.048 -1.844,-0.073" style="fill:#5877b1;fill-rule:nonzero;"/></g></svg>