<?xml version="1.0" standalone="no"?><!DOCTYPE svg PUBLIC "-//W3C//DTD SVG 1.1//EN" "http://www.w3.org/Graphics/SVG/1.1/DTD/svg11.dtd"><svg t="1587978710672" class="icon" viewBox="0 0 1024 1024" version="1.1" xmlns="http://www.w3.org/2000/svg" p-id="8261" xmlns:xlink="http://www.w3.org/1999/xlink" width="200" height="200"><defs><style type="text/css"></style></defs><path d="M512 25.6C306.944 25.6 140.8 198.144 140.8 411.648a395.264 395.264 0 0 0 66.048 219.648 69.12 69.12 0 0 0 6.4 10.24L465.92 972.8a57.1648 57.1648 0 0 0 46.08 25.6 56.32 56.32 0 0 0 45.824-25.6l252.928-331.264a101.9904 101.9904 0 0 0 6.144-9.728 395.1104 395.1104 0 0 0 66.304-220.16C882.944 198.144 717.056 25.6 512 25.6z m0 204.8a166.4 166.4 0 1 1-166.4 166.4A166.4 166.4 0 0 1 512 230.4z" fill="#ffffff" p-id="8262"></path></svg>