<?xml version="1.0" encoding="UTF-8" standalone="no"?><!DOCTYPE svg PUBLIC "-//W3C//DTD SVG 1.1//EN" "http://www.w3.org/Graphics/SVG/1.1/DTD/svg11.dtd"><svg width="100%" height="100%" viewBox="0 0 369 103" version="1.1" xmlns="http://www.w3.org/2000/svg" xmlns:xlink="http://www.w3.org/1999/xlink" xml:space="preserve" xmlns:serif="http://www.serif.com/" style="fill-rule:evenodd;clip-rule:evenodd;stroke-linejoin:round;stroke-miterlimit:2;"><path d="M39.356,9.47l0,24.973c0,2.033 1.653,3.686 3.686,3.686l9.086,0l0,-24.972c0,-2.034 -1.652,-3.687 -3.685,-3.687l-9.087,0Zm-30.119,29.294c11.247,-5.909 12.39,-15.186 12.454,-29.294l-8.769,0c-2.033,0 -3.685,1.653 -3.685,3.687l0,25.607Zm39.206,17.728c2.033,0 3.685,-1.652 3.685,-3.685l0,-10.358l-9.086,0c-4.385,0 -8.007,-3.621 -8.007,-8.006l0,-24.973l-9.023,0c-0.127,16.522 -1.588,27.197 -16.775,34.059l0,9.278c0,2.033 1.652,3.685 3.685,3.685l35.521,0Zm-35.521,4.322c-4.384,0 -8.006,-3.622 -8.006,-8.007l0,-39.65c0,-4.385 3.622,-8.007 8.006,-8.007l35.521,0c4.385,0 8.006,3.622 8.006,8.007l0,39.65c0,4.385 -3.621,8.007 -8.006,8.007l-35.521,0Z" style="fill:#2d945b;fill-rule:nonzero;"/><path d="M111.151,31.838l19.19,0l0,-12.2l-9.849,0c-2.478,4.829 -5.592,8.705 -9.341,12.2m-2.542,-28.404l48.102,0l0,4.321l-22.049,0l0,7.561l25.544,0l0,4.322l-10.357,0l11.692,13.661l-3.241,2.797l-14.107,-16.458l-9.531,0l0,12.2l16.076,0c-2.605,4.765 -5.21,8.96 -8.197,12.517l18.872,0l0,4.385l-22.239,0l0,4.384c0,4.386 -3.622,8.007 -8.007,8.007l-9.023,0l0,-4.32l9.023,0c2.034,0 3.686,-1.589 3.686,-3.687l0,-4.384l-31.327,0l0,-4.385l33.043,0c2.859,-2.859 5.082,-5.653 6.734,-8.197l-32.407,0l0,-4.066c-1.588,1.461 -3.303,2.859 -5.146,4.258l-2.542,-3.368c5.211,-3.939 9.15,-8.007 12.391,-13.344l-10.738,0l0,-4.322l25.48,0l0,-7.561l-21.732,0l0,-4.321Z" style="fill:#2d945b;fill-rule:nonzero;"/><path d="M255.83,43.211l6.608,15.632l-3.939,1.652l-6.609,-15.694l3.94,-1.59Zm-15.886,10.042l-4.321,0l0,-8.897l4.321,0l0,8.897Zm14.233,-25.99l0,-1.779l-18.681,0l0,4.257l16.203,0c1.398,0 2.478,-1.144 2.478,-2.478m-18.681,-10.039l0,3.938l18.681,0l0,-1.398c0,-1.397 -1.08,-2.54 -2.478,-2.54l-16.203,0Zm13.915,43.717l-20.333,0c-4.702,0 -6.863,-3.05 -6.863,-6.863l0,-9.722l4.321,0l0,9.722c0,1.398 0.762,2.542 2.542,2.542l20.333,0l0,4.321Zm-18.236,-31.2l0,-4.257l-18.682,0l0,1.779c0,1.334 1.144,2.478 2.542,2.478l16.14,0Zm-18.682,-8.579l18.682,0l0,-3.938l-16.14,0c-1.398,0 -2.542,1.143 -2.542,2.54l0,1.398Zm23.003,-18.362l0,2.922l25.099,0l0,4.32l-25.099,0l0,2.861l16.203,0c3.75,0 6.8,3.113 6.8,6.861l0,7.499c0,3.813 -3.05,6.799 -6.8,6.799l-16.203,0l0,3.368l18.744,0c0.572,0 1.209,-0.127 1.78,-0.636c0.508,-0.507 0.826,-1.144 0.763,-1.779l0,-1.334l4.32,0l0,1.27c0,1.843 -0.762,3.495 -1.969,4.83c-1.334,1.271 -2.987,1.97 -4.894,1.97l-48.546,0l0,-4.321l25.481,0l0,-3.368l-16.14,0c-3.748,0 -6.863,-2.986 -6.863,-6.799l0,-7.499c0,-3.748 3.115,-6.861 6.863,-6.861l16.14,0l0,-2.861l-25.1,0l0,-4.32l25.1,0l0,-2.922l4.321,0Zm-20.079,41.556c-1.08,6.163 -3.305,11.374 -6.165,16.077l-3.621,-2.225c2.604,-4.193 4.639,-8.959 5.529,-14.551l4.257,0.699Z" style="fill:#2d945b;fill-rule:nonzero;"/><path d="M356.727,20.4c0,-0.127 -0.063,-0.19 -0.191,-0.19l-42.446,0c-0.127,0 -0.191,0.063 -0.191,0.19l0,5.084c0,0.063 0.064,0.126 0.191,0.126l42.446,0c0.128,0 0.191,-0.063 0.191,-0.126l0,-5.084Zm4.32,5.084c0,2.414 -2.032,4.448 -4.511,4.448l-42.446,0c-2.479,0 -4.511,-2.034 -4.511,-4.448l0,-5.084c0,-2.478 2.032,-4.512 4.511,-4.512l42.446,0c2.479,0 4.511,2.034 4.511,4.512l0,5.084Zm-22.811,-22.367l0,3.812l26.243,0l0,4.321l-57.125,0l0,-4.321l26.498,0l0,-3.812l4.384,0Zm-31.327,41.303l34.25,0c3.241,-1.652 6.036,-3.431 8.515,-5.529l-39.397,0l0,-4.32l49.626,0c-3.621,4.002 -7.179,7.307 -10.675,9.849l14.87,0l0,4.32l-21.668,0l-0.509,0.254l0,4.13c0,4.068 -3.114,7.308 -6.862,7.308l-10.676,0l0,-4.32l10.676,0c1.398,0 2.478,-1.336 2.478,-2.988l0,-4.384l-30.628,0l0,-4.32Z" style="fill:#2d945b;fill-rule:nonzero;"/><path d="M18.355,75.813c-1.959,-0.29 -3.991,-0.544 -5.732,-0.544c-3.302,0 -5.986,0.834 -6.131,3.918c-0.109,2.502 2.685,3.918 5.551,5.26c2.792,1.378 5.585,2.721 6.674,5.332c0.435,1.053 0.69,2.068 0.69,3.048c0,3.483 -2.649,6.167 -8.888,6.167c-1.597,0 -3.592,-0.218 -5.804,-0.654l0.471,-2.393c2.032,0.363 3.809,0.58 5.333,0.58c4.498,0 6.42,-1.633 6.42,-3.7c0,-0.69 -0.181,-1.379 -0.471,-2.141c-0.726,-1.668 -3.193,-2.902 -5.478,-4.026c-3.373,-1.67 -6.893,-3.918 -6.965,-7.618c0.326,-4.753 4.063,-6.24 8.598,-6.24c2.067,0 4.172,0.253 6.13,0.544l-0.398,2.467Z" style="fill:#2d945b;fill-rule:nonzero;"/><rect x="38.961" y="73.164" width="2.467" height="25.466" style="fill:#2d945b;"/><path d="M58.625,96.781l0.58,0c2.068,0 3.99,-0.037 3.99,-2.866l0,-20.17l2.504,0l0,20.17c0,5.296 -3.157,5.333 -6.494,5.333l-0.58,0l0,-2.467Z" style="fill:#2d945b;fill-rule:nonzero;"/><rect x="86.16" y="73.164" width="2.466" height="25.466" style="fill:#2d945b;"/><path d="M126.465,73.165l0,25.466l-2.467,0l0,-12.153l-12.951,0l0,12.153l-2.467,0l0,-25.466l2.467,0l0,10.846l12.951,0l0,-10.846l2.467,0Z" style="fill:#2d945b;fill-rule:nonzero;"/><path d="M163.106,72.766l0,17.702c0.29,5.333 -3.954,8.017 -8.307,8.017c-4.28,0 -8.489,-2.611 -8.489,-7.835l0,-17.993l2.467,0l0,17.993c0,3.555 2.975,5.369 6.022,5.369c2.902,0 5.769,-2.069 5.841,-5.405c-0.037,-0.653 -0.037,-2.25 -0.037,-17.848l2.503,0Z" style="fill:#2d945b;fill-rule:nonzero;"/><rect x="182.951" y="73.164" width="2.467" height="25.466" style="fill:#2d945b;"/><path d="M222.096,74.362l-7.51,11.245l7.763,11.646l-2.067,1.305l-7.148,-10.737l-7.147,10.737l-2.066,-1.305l7.727,-11.646l-7.474,-11.245l2.069,-1.306l6.891,10.338l6.894,-10.338l2.068,1.306Z" style="fill:#2d945b;fill-rule:nonzero;"/><rect x="240.998" y="73.164" width="2.467" height="25.466" style="fill:#2d945b;"/><path d="M268.28,87.566l7.726,0l-3.845,-10.483c-1.27,3.518 -2.576,7.001 -3.881,10.483m-6.423,10.158l9.251,-25.031l2.104,0l9.179,25.14l-2.323,0.87l-3.156,-8.634l-9.576,0l-3.156,8.525l-2.323,-0.87Z" style="fill:#2d945b;fill-rule:nonzero;"/><path d="M318.778,72.838l0,25.575l-2.576,0l-12.914,-20.568c0,6.783 0.036,13.64 0.036,20.424l-2.503,0l0,-25.539l2.141,0l13.313,21.221c0,-7.037 0.036,-14.075 0.036,-21.113l2.467,0Z" style="fill:#2d945b;fill-rule:nonzero;"/><path d="M354.185,75.668c-0.543,-0.036 -1.124,-0.036 -1.668,-0.109c-1.451,-0.144 -3.011,-0.326 -4.354,-0.326c-2.901,0 -5.622,0.762 -6.711,3.409c-0.689,1.996 -1.088,4.571 -1.088,7.183c0,2.757 0.399,5.479 1.088,7.4l0,-0.035c0.907,2.466 3.629,3.3 6.567,3.3c1.233,0 2.539,-0.144 3.736,-0.399c0,-3.519 0.036,-6.856 0.036,-10.411l2.467,0l-0.036,12.407c-2.249,0.508 -4.426,0.871 -6.203,0.871c-3.845,0 -7.546,-1.198 -8.889,-4.898c-0.761,-2.14 -1.232,-5.187 -1.232,-8.235c0,-2.939 0.435,-5.84 1.232,-8.053c1.524,-4.027 5.153,-5.006 9.033,-5.006c1.633,0 3.156,0.18 4.571,0.327l1.56,0.108l-0.109,2.467Z" style="fill:#2d945b;fill-rule:nonzero;"/></svg>