<?xml version="1.0" encoding="UTF-8" standalone="no"?><!DOCTYPE svg PUBLIC "-//W3C//DTD SVG 1.1//EN" "http://www.w3.org/Graphics/SVG/1.1/DTD/svg11.dtd"><svg width="100%" height="100%" viewBox="0 0 400 400" version="1.1" xmlns="http://www.w3.org/2000/svg" xmlns:xlink="http://www.w3.org/1999/xlink" xml:space="preserve" xmlns:serif="http://www.serif.com/" style="fill-rule:evenodd;clip-rule:evenodd;stroke-linejoin:round;stroke-miterlimit:2;"><g id="图层-1" serif:id="图层 1"><path d="M201.537,342.908c87.164,-5.286 127.262,-80.017 120.382,-135.66c-7.32,-59.209 -58.023,-106.02 -117.089,-106.958c-63.296,-1.006 -114.794,42.217 -123.619,105.412c-4.961,35.524 4.759,67.701 28.508,95.078c23.417,26.998 57.334,40.228 94.07,42.226c-4.844,4.89 -13.518,5.663 -17.84,7.433c-24.675,10.106 -71.07,28.101 -96.211,37.806c-8.095,3.126 -16.682,-3.157 -16.171,-11.82c1.672,-28.295 4.935,-82.138 7.203,-111.048c0.472,-6.008 -1.185,-10.356 -4.992,-14.838c-24.473,-28.803 -48.725,-57.793 -73.036,-86.733l-0.105,-0.125c-5.324,-6.339 -2.188,-16.061 5.834,-18.1c11.366,-2.887 22.336,-5.672 33.324,-8.388c26.021,-6.43 52.045,-12.846 78.119,-19.057c5.477,-1.304 8.841,-4.337 11.748,-9.051c15.012,-24.348 43.062,-68.115 58.52,-92.153c5.127,-7.972 16.754,-7.993 21.91,-0.041c15.53,23.95 43.65,67.521 58.469,91.725c3.517,5.744 7.927,8.437 14.211,9.96c27.23,6.6 76.516,19.155 104.745,26.379c9.935,2.542 13.802,14.567 7.223,22.433c-8.237,9.847 -18.252,21.814 -24.802,29.63c-15.272,18.222 -30.443,36.531 -45.941,54.557c-3.504,4.075 -4.568,8.059 -4.169,13.278c2.098,27.4 5.071,77.682 6.767,107.215c0.629,10.935 -10.258,18.828 -20.453,14.823c-26.611,-10.455 -71.079,-27.986 -95.312,-37.882c-2.999,-1.225 -8.393,-2.5 -11.293,-6.101" style="fill:#fcd41f;fill-rule:nonzero;"/><path d="M260.923,242.116c0.001,0.009 -0.004,0.015 -0.004,0.024c0.007,-0.003 0.015,-0.004 0.022,-0.006l-0.018,-0.018Z" style="fill:#6db04d;fill-rule:nonzero;"/><path d="M215.58,110.455c2.374,2.308 4.353,5.049 4.947,8.306c2.403,13.182 -1.811,20.368 -14.29,25.696c1.896,0.495 3.79,2.023 6.129,1.454c6.971,2.192 13.21,5.704 19.165,9.728c2.828,1.911 5.281,4.327 7.292,7.086c0.934,1.282 7.673,10.454 8.26,14.651c-3.893,-0.459 -7.686,-2.067 -11.71,-1.001c-2.545,-4.832 -5.474,-9.381 -9.604,-13.047c-0.9,-1.015 -1.909,-1.806 -4.105,-1.652c2.873,5.442 4.49,11.111 5.149,16.844c0.54,4.699 3.074,9.619 0.097,14.364c-1.199,-0.105 -0.788,-0.069 -1.986,-0.174c-6.224,-13.41 -28.15,-15.793 -38.877,-5.403c-4.117,1.565 -6.008,6.557 -11.138,6.561c-0.478,-0.492 -0.823,-0.849 -1.299,-1.34c-0.223,-7.943 2.103,-15.633 2.505,-23.513c1.458,-1.814 1.665,-3.991 2.3,-6.238c-3.646,0.161 -5.488,2.482 -6.301,4.827c-2.571,7.416 -8.404,8.937 -15.117,9.301l0,-0.001c0.719,-4.008 3.109,-7.273 4.827,-10.837c1.888,-2.413 4.858,-6.207 6.747,-8.62c8.164,-6.818 17.411,-11.344 29.567,-12.83l-9.005,-4.177c-6.362,-6.094 -9.452,-13.257 -7.24,-22.153c1.9,-4.98 5.311,-8.726 9.601,-11.755c16.463,-5.953 23.697,3.543 24.086,3.923" style="fill:#cc4b31;fill-rule:nonzero;"/><path d="M260.94,242.133c-10.586,3.736 -21.499,5.877 -32.686,6.669c0.044,-2.8 2.662,-3.567 4.2,-5.107c8.929,-8.937 11.736,-19.505 8.465,-31.599c-2.022,-7.483 -7.219,-12.867 -12.831,-17.856c1.019,-0.244 2.031,-0.491 3.043,-0.739c0.601,0.058 1.201,0.116 1.803,0.176c8.941,1.255 17.847,2.705 26.704,5.764c-0.078,-3.316 -2.188,-4.313 -3.495,-5.86c-4.212,-4.981 -10.562,-5.604 -16.09,-7.902c-0.757,-0.054 -1.512,-0.107 -2.269,-0.16c-2.924,-2.488 -1.759,-6.055 -2.411,-9.144c3.027,-0.802 5.924,-0.091 8.831,0.506c1.989,0.408 3.897,1.119 5.632,2.172c3.393,2.058 7.762,4.689 10.278,6.233c1.274,0.783 2.451,1.702 3.513,2.755l0.917,0.908c1.603,1.587 2.991,3.378 4.158,5.31c4.401,7.289 7.919,15.015 8.619,24.434l4.193,-8.645c1.307,-1.468 2.549,-2.863 3.854,-4.331c6.066,-3.958 12.512,-5.201 19.419,-3.142c1.469,0.438 2.875,1.115 4.143,1.978c0.185,0.127 0.37,0.256 0.553,0.387c3.496,2.499 5.906,6.25 7.06,10.39c0.773,2.769 1.676,5.526 1.12,8.58c-1.456,7.98 -5.714,12.931 -13.552,15.261c-5.655,1.68 -11.852,1.28 -17.109,-1.395c-2.866,-1.458 -5.631,-3.688 -6.776,-7.526c-1.633,-4.096 -0.395,-3.771 -2.763,-5.12c-3.132,19.977 -13.802,33.508 -32.533,40.418c-3.187,-0.007 -6.272,1.681 -9.525,0.577c0.772,-3.012 -0.913,-6.653 2.306,-9.042c8.256,-0.595 14.75,-4.624 20.335,-10.426c0.964,-1.511 3.024,-2.327 2.877,-4.54c0.083,-0.122 0.166,-0.242 0.249,-0.364c-0.077,0.127 -0.155,0.253 -0.232,0.38" style="fill:#f0a53b;fill-rule:nonzero;"/><path d="M228.254,248.802c-4.878,2.05 -7.289,7.073 -12.065,9.507c-14.336,7.306 -27.481,4.974 -37.666,-7.337c-1.102,-1.332 -2.051,-2.816 -3.854,-3.324c-0.944,0.371 -1.504,1.065 -1.715,2.049c0.043,0.227 0.656,5.461 0.808,7.43c0.661,6.197 2.984,12.186 2.678,19.139c-4.78,-2.174 -5.48,-6.583 -7.493,-9.991c-2.182,0.281 -9.062,-1.866 -12.15,-0.924c1.548,5.307 4.666,9.804 7.43,14.484c1.271,1.436 3.264,3.687 4.535,5.124c8.092,6.207 20.545,10.866 30.847,13.394c-1.386,0.835 -6.621,1.622 -7.888,2.383c-4.351,2.615 -7.948,6.509 -9.507,11.34c-1.44,4.457 -1.346,9.206 0.529,14.29c2.175,3.847 5.369,6.743 8.793,9.423c7.538,3.262 15.138,4.596 22.906,0.747c3.333,-2.826 6.223,-6.021 8.262,-9.926c2.407,-9.161 -0.109,-16.808 -7.092,-23.084c-1.542,-1.347 -5.408,-4.393 -8.632,-5.761c20.941,-2.72 31.157,-12.88 37.95,-32.216c-3.187,-0.008 -6.272,1.68 -9.525,0.574c-2.46,2.8 -9.909,13.587 -13.557,15.366c3.404,-9.373 5.879,-18.087 5.955,-27.293c0.012,-1.525 1.248,-5.476 1.248,-5.476c-0.267,0.02 -0.53,0.063 -0.797,0.082" style="fill:#6db04d;fill-rule:nonzero;"/><path d="M173.659,193.676c-8.844,0.435 -17.611,1.392 -26.368,3.632c4.218,-4.832 8.905,-9.085 15.683,-9.556c4.291,-0.297 6.008,-2.008 6.358,-6.294c0.116,-1.416 -3.078,-6.651 -3.079,-6.652c-2.288,1.221 -4.977,1.759 -7.873,2.002c-3.885,1.618 -9.692,4.035 -13.577,5.653l-6.578,5.267c-5.142,6.215 -9.82,12.665 -11.935,20.667c-0.773,2.925 -2.408,4.164 -4.534,0.767c-6.754,-5.046 -13.973,-8.675 -22.778,-7.474c-5.043,1.926 -9.129,5.132 -12.471,9.333c-3.617,8.046 -2.854,15.705 2.034,22.999c3.077,2.881 6.858,4.686 10.428,6.813c8.557,2.627 16.267,1.313 22.914,-4.934c0.854,-1.457 1.565,-3.036 3.758,-4.155c2.655,10.757 8.758,19.282 16.91,26.48c1.275,0.81 2.536,1.612 3.811,2.423c3.479,1.568 6.956,3.135 10.435,4.704c4.07,3.969 9.968,1.205 12.153,0.923c0.569,-6.141 -2.006,-8.679 -8.371,-9.475c-7.083,-0.885 -11.829,-6.289 -17.439,-12.981c9.482,2.617 17.352,4.61 25.371,5.871c1.482,0.004 2.964,0.008 4.444,0.01c0.211,-0.986 0.77,-1.681 1.715,-2.051c-2.592,-3.318 -6.36,-5.739 -7.648,-10.05c-6.363,-9.992 -5.913,-22.523 1.142,-31.798c1.124,-3.144 3.622,-5.185 6.018,-7.245c1.549,-1.333 2.649,-2.637 1.911,-4.784c-0.811,-0.031 -1.622,-0.063 -2.434,-0.095" style="fill:#5877b1;fill-rule:nonzero;"/></g></svg>